G04*
G04 #@! TF.GenerationSoftware,Altium Limited,Altium Designer,23.8.1 (32)*
G04*
G04 Layer_Color=128*
%FSLAX44Y44*%
%MOMM*%
G71*
G04*
G04 #@! TF.SameCoordinates,4367AEAE-D2C0-438D-9D7F-6733A8EB5FA7*
G04*
G04*
G04 #@! TF.FilePolarity,Positive*
G04*
G01*
G75*
%ADD10C,0.1270*%
D10*
X-162500Y450000D02*
X-137500D01*
X-150000Y437500D02*
Y462500D01*
X137500Y-450000D02*
X162500D01*
X150000Y-462500D02*
Y-437500D01*
X-162500Y-200000D02*
X-137500D01*
X-150000Y-212500D02*
Y-187500D01*
X137500Y-125000D02*
X162500D01*
X150000Y-137500D02*
Y-112500D01*
X-162500Y125000D02*
X-137500D01*
X-150000Y112500D02*
Y137500D01*
X137500Y200000D02*
X162500D01*
X150000Y187500D02*
Y212500D01*
X452500Y-373490D02*
X497500D01*
X475000Y-395990D02*
Y-350990D01*
X-497500Y-373490D02*
X-452500D01*
X-475000Y-395990D02*
Y-350990D01*
X452500Y0D02*
X497500D01*
X475000Y-22500D02*
Y22500D01*
X-497500Y0D02*
X-452500D01*
X-475000Y-22500D02*
Y22500D01*
X452500Y373490D02*
X497500D01*
X475000Y350990D02*
Y395990D01*
X-497500Y373490D02*
X-452500D01*
X-475000Y350990D02*
Y395990D01*
M02*
