G04*
G04 #@! TF.GenerationSoftware,Altium Limited,Altium Designer,23.8.1 (32)*
G04*
G04 Layer_Physical_Order=2*
G04 Layer_Color=16711680*
%FSLAX44Y44*%
%MOMM*%
G71*
G04*
G04 #@! TF.SameCoordinates,4367AEAE-D2C0-438D-9D7F-6733A8EB5FA7*
G04*
G04*
G04 #@! TF.FilePolarity,Positive*
G04*
G01*
G75*
%ADD15O,7.0000X4.5000*%
%ADD16R,12.0000X12.0000*%
%ADD17R,12.0000X12.0000*%
G36*
X-30000Y-188320D02*
X-30000Y-456720D01*
X-68182Y-494902D01*
X-503318D01*
X-544902Y-453318D01*
X-544902Y-191602D01*
X-503300Y-150000D01*
X-68320Y-150000D01*
X-30000Y-188320D01*
D02*
G37*
G36*
Y136680D02*
X-30000Y-57820D01*
X-68580Y-96400D01*
X-508000D01*
X-544902Y-59498D01*
X-544902Y133398D01*
X-503300Y175000D01*
X-68320Y175000D01*
X-30000Y136680D01*
D02*
G37*
G36*
Y461680D02*
X-30000Y267180D01*
X-68580Y228600D01*
X-508000D01*
X-544902Y265502D01*
X-544902Y458398D01*
X-508398Y494902D01*
X-63222D01*
X-30000Y461680D01*
D02*
G37*
G36*
X544902Y-265502D02*
X544902Y-458398D01*
X508398Y-494902D01*
X63222D01*
X30000Y-461680D01*
X30000Y-267180D01*
X68580Y-228600D01*
X508000D01*
X544902Y-265502D01*
D02*
G37*
G36*
X544902Y59498D02*
X544902Y-133398D01*
X503300Y-175000D01*
X68320Y-175000D01*
X30000Y-136680D01*
X30000Y57820D01*
X68580Y96400D01*
X508000D01*
X544902Y59498D01*
D02*
G37*
G36*
X544902Y453318D02*
X544902Y191602D01*
X503300Y150000D01*
X68320Y150000D01*
X30000Y188320D01*
X30000Y456720D01*
X68182Y494902D01*
X503318D01*
X544902Y453318D01*
D02*
G37*
D15*
X-150000Y450000D02*
D03*
X150000Y-450000D02*
D03*
X-150000Y-200000D02*
D03*
X150000Y-125000D02*
D03*
X-150000Y125000D02*
D03*
X150000Y200000D02*
D03*
D16*
X475000Y-373490D02*
D03*
Y0D02*
D03*
Y373490D02*
D03*
Y-373490D02*
D03*
Y0D02*
D03*
Y373490D02*
D03*
D17*
X-475000Y-373490D02*
D03*
Y0D02*
D03*
Y373490D02*
D03*
Y-373490D02*
D03*
Y0D02*
D03*
Y373490D02*
D03*
M02*
